<?xml version="1.0" encoding="UTF-8"?>
<svg xmlns="http://www.w3.org/2000/svg" xmlns:xlink="http://www.w3.org/1999/xlink" width="216px" height="150px" viewBox="0 0 216 150" version="1.1">
<g id="surface1">
<path style="fill:none;stroke-width:5;stroke-linecap:butt;stroke-linejoin:miter;stroke:rgb(11.372549%,11.372549%,10.588235%);stroke-opacity:1;stroke-miterlimit:4;" d="M 569.742188 235.289062 L 481.875 235.289062 L 481.21875 236.8125 L 473.472656 255.035156 L 471.984375 258.515625 L 559.675781 258.515625 C 565.078125 258.515625 568.757812 264.082031 566.625 269.097656 L 562.207031 279.492188 L 436.242188 279.492188 L 454.289062 237.023438 C 460.230469 223.054688 473.882812 214.007812 488.976562 214.007812 L 563.203125 214.007812 L 563.847656 212.484375 L 571.464844 194.589844 L 572.941406 191.109375 L 473.8125 191.109375 L 482.578125 170.484375 L 581.871094 170.484375 C 594.492188 170.484375 603.035156 183.445312 598.066406 195.128906 L 585.574219 224.542969 C 582.84375 230.964844 576.644531 235.148438 569.742188 235.289062 Z M 569.742188 235.289062 " transform="matrix(0.333333,0,0,0.333333,0,0)"/>
<path style=" stroke:none;fill-rule:evenodd;fill:rgb(11.764706%,12.54902%,18.431373%);fill-opacity:1;" d="M 23.5 57.035156 C 21.46875 57.035156 19.636719 58.234375 18.832031 60.082031 L 15.539062 67.769531 C 14.828125 69.4375 16.058594 71.285156 17.875 71.285156 L 28.601562 71.285156 C 29.109375 71.285156 29.570312 70.980469 29.765625 70.515625 L 30.832031 68.035156 L 19.550781 68.035156 L 22.566406 61.007812 L 20.929688 60.238281 L 33.347656 60.238281 C 33.855469 60.238281 34.316406 59.933594 34.511719 59.46875 L 35.558594 57.035156 Z M 51.164062 68.214844 C 50.367188 70.078125 48.53125 71.285156 46.492188 71.285156 L 35.160156 71.285156 C 33.339844 71.285156 32.113281 69.433594 32.828125 67.765625 L 36.121094 60.097656 C 36.917969 58.238281 38.753906 57.03125 40.785156 57.03125 L 52.121094 57.03125 C 53.941406 57.03125 55.167969 58.878906 54.453125 60.546875 Z M 47.453125 67.269531 L 50.46875 60.238281 L 38.285156 60.238281 L 39.847656 61.007812 L 36.828125 68.035156 L 46.289062 68.035156 C 46.796875 68.035156 47.253906 67.738281 47.453125 67.269531 Z M 61.097656 92.496094 L 58.6875 92.496094 L 63.433594 81.445312 C 63.246094 81.445312 58.183594 81.445312 58.183594 81.445312 L 59.570312 78.242188 L 74.148438 78.242188 L 73.183594 80.511719 C 72.953125 81.058594 72.296875 81.445312 71.65625 81.445312 L 67.511719 81.445312 L 63.433594 90.960938 C 63.035156 91.894531 62.117188 92.496094 61.097656 92.496094 Z M 108.804688 88.535156 L 107.519531 88.535156 L 104.035156 88.53125 L 102.300781 92.496094 L 98.292969 92.496094 L 104.429688 78.246094 L 108.425781 78.246094 L 105.535156 84.972656 L 115.027344 78.46875 C 115.238281 78.324219 115.488281 78.246094 115.75 78.246094 L 121.757812 78.246094 L 111.125 85.59375 L 115.921875 92.5 L 111.535156 92.5 Z M 101.136719 78.242188 L 97.03125 78.242188 L 90.902344 92.496094 L 93.894531 92.496094 C 94.535156 92.496094 95.222656 92.074219 95.453125 91.53125 L 99.027344 83.175781 Z M 89.125 92.496094 L 84.84375 92.496094 L 83.078125 89.25 L 75.507812 89.25 L 74.769531 90.964844 C 74.371094 91.894531 73.449219 92.496094 72.433594 92.496094 L 69.992188 92.496094 L 76.117188 78.246094 L 89.734375 78.246094 C 91.558594 78.246094 92.785156 80.097656 92.070312 81.761719 L 89.429688 87.90625 C 89.078125 88.722656 88.273438 89.25 87.382812 89.25 Z M 90.464844 85.4375 L 88.195312 81.449219 L 76.96875 81.460938 L 78.523438 82.207031 L 76.867188 86.078125 L 85.375 86.078125 C 85.886719 86.078125 86.347656 85.777344 86.546875 85.308594 L 88.195312 81.445312 Z M 124.484375 84.164062 L 133.691406 84.164062 L 132.824219 86.171875 C 132.625 86.636719 132.164062 86.9375 131.65625 86.9375 L 123.285156 86.9375 L 122.285156 89.246094 L 133.535156 89.246094 L 132.476562 91.726562 C 132.277344 92.191406 131.820312 92.496094 131.308594 92.496094 L 118.714844 92.496094 C 117.808594 92.496094 117.191406 91.570312 117.550781 90.738281 L 122.25 79.777344 C 122.648438 78.847656 123.566406 78.242188 124.582031 78.242188 L 138.261719 78.242188 L 137.214844 80.679688 C 137.015625 81.148438 136.558594 81.445312 136.050781 81.445312 L 123.738281 81.445312 L 125.324219 82.199219 Z M 57.695312 68.035156 L 62.375 57.035156 L 59.933594 57.035156 C 58.917969 57.035156 58 57.640625 57.601562 58.570312 L 53.640625 67.769531 C 52.921875 69.4375 54.152344 71.285156 55.972656 71.285156 L 66.367188 71.285156 C 68.40625 71.285156 70.246094 70.078125 71.042969 68.210938 L 75.816406 57.035156 L 73.398438 57.035156 C 72.378906 57.035156 71.460938 57.636719 71.058594 58.570312 L 67.339844 67.261719 C 67.144531 67.730469 66.679688 68.035156 66.171875 68.035156 Z M 99.589844 71.285156 L 97.179688 71.285156 L 101.929688 60.238281 C 101.742188 60.238281 96.679688 60.238281 96.679688 60.238281 L 98.066406 57.035156 L 112.644531 57.035156 L 111.679688 59.304688 C 111.449219 59.847656 110.792969 60.238281 110.152344 60.238281 L 106.007812 60.238281 L 101.929688 69.75 C 101.53125 70.679688 100.609375 71.285156 99.589844 71.285156 Z M 145.636719 71.285156 Z M 143.894531 68.035156 L 145.636719 71.285156 L 141.355469 71.285156 L 139.589844 68.035156 L 132.015625 68.035156 L 131.28125 69.75 C 130.878906 70.679688 129.960938 71.285156 128.941406 71.285156 L 126.5 71.285156 L 132.625 57.035156 L 146.238281 57.035156 C 148.0625 57.035156 149.292969 58.882812 148.578125 60.550781 L 145.9375 66.691406 C 145.59375 67.511719 144.785156 68.035156 143.894531 68.035156 Z M 144.710938 60.238281 L 146.976562 64.222656 L 144.710938 60.238281 L 143.058594 64.101562 C 142.859375 64.566406 142.398438 64.871094 141.890625 64.871094 L 133.378906 64.871094 L 135.035156 60.996094 L 133.480469 60.25 Z M 125.550781 62.953125 L 116.320312 62.953125 L 117.164062 60.988281 L 115.574219 60.238281 L 127.914062 60.238281 C 128.421875 60.238281 128.882812 59.933594 129.082031 59.46875 L 130.128906 57.035156 L 116.421875 57.035156 C 115.398438 57.035156 114.480469 57.636719 114.078125 58.566406 L 109.367188 69.527344 C 109.011719 70.359375 109.625 71.285156 110.535156 71.285156 L 123.160156 71.285156 C 123.671875 71.285156 124.128906 70.980469 124.328125 70.511719 L 125.390625 68.035156 L 114.117188 68.035156 L 115.117188 65.722656 L 123.511719 65.722656 C 124.015625 65.722656 124.476562 65.421875 124.679688 64.960938 Z M 77.214844 69.75 C 76.816406 70.679688 75.898438 71.285156 74.878906 71.285156 L 72.4375 71.285156 L 78.5625 57.035156 L 81.625 57.03125 C 82.09375 57.03125 82.527344 57.285156 82.746094 57.703125 L 87.632812 66.886719 L 91.226562 58.566406 C 91.625 57.640625 92.542969 57.035156 93.558594 57.035156 L 96.039062 57.035156 L 90.238281 70.515625 C 90.035156 70.980469 89.578125 71.285156 89.066406 71.285156 L 86.464844 71.285156 C 85.996094 71.285156 85.5625 71.027344 85.34375 70.613281 L 80.636719 61.789062 Z M 48.777344 89.25 L 49.757812 86.96875 L 41.195312 86.96875 C 39.375 86.96875 38.148438 85.125 38.855469 83.460938 L 39.238281 82.570312 L 39.769531 81.324219 C 40.566406 79.457031 42.40625 78.242188 44.449219 78.242188 L 57.503906 78.242188 L 56.460938 80.679688 C 56.261719 81.148438 55.800781 81.449219 55.289062 81.449219 L 41.800781 81.449219 L 43.398438 82.21875 L 42.769531 83.6875 L 51.320312 83.6875 C 53.144531 83.6875 54.375 85.535156 53.65625 87.203125 L 52.699219 89.429688 C 51.898438 91.289062 50.058594 92.496094 48.027344 92.496094 L 34.96875 92.496094 L 36.042969 90.011719 C 36.242188 89.550781 36.703125 89.25 37.210938 89.25 Z M 48.777344 89.25 "/>
</g>
</svg>
